<?xml version="1.0" encoding="UTF-8"?>
<svg fill-opacity=".5" viewBox="0 0 128 128" xmlns="http://www.w3.org/2000/svg">
 <g transform="translate(21.48 -749.54)" stroke="#000">
  <path d="m56.693 813.54a14.173 14.173 0 1 0 -28.346 0 14.173 14.173 0 1 0 28.346 0" fill="#7f7f7f" fill-rule="evenodd" stroke-width="1.25"/>
  <path transform="matrix(.70711 .70711 -.70711 .70711 557.94 217.94)" d="m42.52 785.2h5.8681" fill="none"/>
  <path transform="matrix(.70711 .70711 -.70711 .70711 573.84 233.84)" d="m42.52 785.2h5.8681" fill="none"/>
  <g fill="none" fill-opacity=".5">
   <path transform="matrix(-.70711 .70711 -.70711 -.70711 638.32 1328.4)" d="m42.52 785.2h5.8681"/>
   <path transform="matrix(-.70711 .70711 -.70711 -.70711 622.42 1344.3)" d="m42.52 785.2h5.8681"/>
  </g>
  <g fill="none" fill-opacity=".5">
   <path transform="matrix(1.2739e-18 1 -1 1.2739e-18 827.72 756.85)" d="m42.52 785.2h5.8681"/>
   <path transform="matrix(1.2739e-18 1 -1 1.2739e-18 827.72 779.33)" d="m42.52 785.2h5.8681"/>
  </g>
  <g fill="none" fill-opacity=".5">
   <path transform="translate(-14.173 28.346)" d="m42.52 785.2h5.8681"/>
   <path transform="translate(8.3051 28.346)" d="m42.52 785.2h5.8681"/>
  </g>
  <path transform="matrix(1.4111 0 0 1.4111 12.52 -304.46)" d="m28.346 792.28a7.0866 7.0866 0 1 0 -14.173 0 7.0866 7.0866 0 1 0 14.173 0" fill="#d1d1d1" fill-rule="evenodd" stroke-width="1.25"/>
 </g>
</svg>
